<svg width="43" height="43" viewBox="0 0 43 43" fill="none" xmlns="http://www.w3.org/2000/svg">
<rect width="43" height="43" rx="6" fill="#E0EAF9"/>
<g clip-path="url(#clip0_47_1059)">
<path d="M30.3901 20.13C28.7538 18.2575 25.4201 15.125 21.5001 15.125C17.5801 15.125 14.2463 18.2575 12.6101 20.13C12.1399 20.6884 11.8821 21.395 11.8821 22.125C11.8821 22.855 12.1399 23.5616 12.6101 24.12C14.2463 25.9925 17.5801 29.125 21.5001 29.125C25.4201 29.125 28.7538 25.9925 30.3901 24.12C30.8603 23.5616 31.1181 22.855 31.1181 22.125C31.1181 21.395 30.8603 20.6884 30.3901 20.13V20.13ZM29.0688 23C27.6251 24.645 24.6938 27.375 21.5001 27.375C18.3063 27.375 15.3751 24.61 13.9313 23C13.7365 22.7634 13.6299 22.4665 13.6299 22.16C13.6299 21.8535 13.7365 21.5566 13.9313 21.32C15.3751 19.64 18.2713 16.875 21.5001 16.875C24.7288 16.875 27.6251 19.64 29.0688 21.25C29.2823 21.4915 29.4001 21.8027 29.4001 22.125C29.4001 22.4473 29.2823 22.7585 29.0688 23ZM21.5001 18.625C20.8079 18.625 20.1312 18.8303 19.5556 19.2149C18.98 19.5994 18.5314 20.1461 18.2665 20.7856C18.0016 21.4251 17.9323 22.1289 18.0673 22.8078C18.2024 23.4868 18.5357 24.1104 19.0252 24.5999C19.5147 25.0894 20.1383 25.4227 20.8173 25.5577C21.4962 25.6928 22.1999 25.6235 22.8395 25.3586C23.479 25.0937 24.0256 24.6451 24.4102 24.0695C24.7948 23.4939 25.0001 22.8172 25.0001 22.125C25.0001 21.1967 24.6313 20.3065 23.975 19.6501C23.3186 18.9937 22.4283 18.625 21.5001 18.625V18.625ZM21.5001 23.875C21.154 23.875 20.8156 23.7724 20.5278 23.5801C20.2401 23.3878 20.0158 23.1145 19.8833 22.7947C19.7508 22.4749 19.7162 22.1231 19.7837 21.7836C19.8512 21.4441 20.0179 21.1323 20.2627 20.8876C20.5074 20.6428 20.8192 20.4762 21.1587 20.4086C21.4981 20.3411 21.85 20.3758 22.1698 20.5082C22.4896 20.6407 22.7629 20.865 22.9552 21.1528C23.1475 21.4405 23.2501 21.7789 23.2501 22.125C23.2501 22.5891 23.0657 23.0342 22.7375 23.3624C22.4093 23.6906 21.9642 23.875 21.5001 23.875ZM20.6251 12.5V10.75C20.6251 10.5179 20.7173 10.2954 20.8814 10.1313C21.0455 9.96719 21.268 9.875 21.5001 9.875C21.7322 9.875 21.9547 9.96719 22.1188 10.1313C22.2829 10.2954 22.3751 10.5179 22.3751 10.75V12.5C22.3751 12.7321 22.2829 12.9546 22.1188 13.1187C21.9547 13.2828 21.7322 13.375 21.5001 13.375C21.268 13.375 21.0455 13.2828 20.8814 13.1187C20.7173 12.9546 20.6251 12.7321 20.6251 12.5ZM16.3376 11.9488C16.2505 11.7351 16.2513 11.4958 16.3398 11.2828C16.4283 11.0698 16.5973 10.9003 16.8101 10.8113C16.9186 10.7598 17.0366 10.7312 17.1566 10.7273C17.2767 10.7234 17.3962 10.7443 17.5079 10.7886C17.6195 10.833 17.7208 10.8998 17.8055 10.985C17.8902 11.0702 17.9564 11.1719 18.0001 11.2838L18.6651 12.9025C18.7196 13.0351 18.7406 13.179 18.7264 13.3216C18.7123 13.4642 18.6633 13.6011 18.5838 13.7204C18.5043 13.8396 18.3967 13.9375 18.2705 14.0054C18.1443 14.0734 18.0034 14.1093 17.8601 14.11C17.6873 14.1091 17.5187 14.0572 17.3755 13.9606C17.2322 13.8641 17.1207 13.7273 17.0551 13.5675L16.3376 11.9488ZM12.8376 14.6963C12.6942 14.5289 12.6193 14.3135 12.6278 14.0933C12.6363 13.8731 12.7276 13.6642 12.8835 13.5084C13.0393 13.3525 13.2482 13.2613 13.4684 13.2528C13.6886 13.2442 13.904 13.3192 14.0713 13.4625L15.3138 14.6963C15.3959 14.7776 15.4609 14.8744 15.5054 14.981C15.5498 15.0876 15.5727 15.202 15.5727 15.3175C15.5727 15.433 15.5498 15.5474 15.5054 15.654C15.4609 15.7606 15.3959 15.8574 15.3138 15.9388C15.2321 16.0198 15.1351 16.084 15.0285 16.1276C14.9219 16.1711 14.8077 16.1932 14.6926 16.1925C14.5774 16.1932 14.4633 16.1711 14.3567 16.1276C14.2501 16.084 14.1531 16.0198 14.0713 15.9388L12.8376 14.6963ZM24.3788 12.9463L25.0438 11.3275C25.0879 11.2211 25.1525 11.1244 25.2341 11.043C25.3156 10.9616 25.4123 10.8971 25.5188 10.8532C25.6253 10.8093 25.7395 10.7869 25.8546 10.7872C25.9698 10.7875 26.0838 10.8105 26.1901 10.855C26.4029 10.944 26.5719 11.1135 26.6604 11.3265C26.7489 11.5396 26.7497 11.7789 26.6626 11.9925L25.9888 13.6113C25.9232 13.771 25.8117 13.9078 25.6685 14.0044C25.5252 14.1009 25.3566 14.1529 25.1838 14.1538C25.0405 14.153 24.8996 14.1171 24.7734 14.0492C24.6472 13.9813 24.5397 13.8834 24.4602 13.7641C24.3807 13.6449 24.3317 13.5079 24.3175 13.3653C24.3033 13.2227 24.3244 13.0788 24.3788 12.9463V12.9463ZM27.6863 15.9825C27.6043 15.9012 27.5392 15.8044 27.4948 15.6978C27.4504 15.5911 27.4275 15.4768 27.4275 15.3613C27.4275 15.2457 27.4504 15.1314 27.4948 15.0247C27.5392 14.9181 27.6043 14.8213 27.6863 14.74L28.9288 13.4625C29.0073 13.3709 29.1038 13.2965 29.2124 13.244C29.3209 13.1915 29.4392 13.162 29.5597 13.1573C29.6802 13.1526 29.8003 13.173 29.9126 13.2169C30.0249 13.2609 30.1269 13.3277 30.2122 13.4129C30.2974 13.4982 30.3642 13.6002 30.4081 13.7125C30.4521 13.8248 30.4724 13.9449 30.4678 14.0654C30.4631 14.1859 30.4336 14.3042 30.3811 14.4127C30.3286 14.5213 30.2542 14.6178 30.1626 14.6963L28.9288 15.9388C28.8471 16.0198 28.7501 16.084 28.6435 16.1276C28.5369 16.1711 28.4227 16.1932 28.3076 16.1925C28.1924 16.1932 28.0783 16.1711 27.9717 16.1276C27.8651 16.084 27.7681 16.0198 27.6863 15.9388V15.9825Z" fill="#6295E2"/>
</g>
<defs>
<clipPath id="clip0_47_1059">
<rect width="21" height="21" fill="white" transform="translate(11 9)"/>
</clipPath>
</defs>
</svg>
