<svg width="14" height="21" viewBox="0 0 14 21" fill="none" xmlns="http://www.w3.org/2000/svg">
<g clip-path="url(#clip0_64_436)">
<path d="M9.5752 3.50011C9.5752 4.87765 8.45278 6 7.0752 6C5.69743 6 4.5752 4.87769 4.5752 3.50011C4.5752 2.12231 5.69765 1 7.0752 1C8.45274 1 9.5752 2.12231 9.5752 3.50011Z" stroke="#1E1E1E" stroke-width="2"/>
<path d="M10.3708 11.4589L10.3707 11.4589C9.98232 10.027 8.63725 9 7.07526 9C5.51322 9 4.16798 10.0271 3.77956 11.4589C3.77956 11.4589 3.77956 11.4589 3.77956 11.4589L1.58791 19.5385L1.58785 19.5387C1.55906 19.6447 1.57896 19.7511 1.65298 19.8447C1.72867 19.9405 1.84418 20 1.98429 20H12.166C12.3061 20 12.4216 19.9405 12.4973 19.8447C12.5713 19.7512 12.5913 19.6447 12.5626 19.5385L10.3708 11.4589ZM10.3708 11.4589L12.5625 19.5382L10.3708 11.4589Z" stroke="#1E1E1E" stroke-width="2"/>
</g>
<defs>
<clipPath id="clip0_64_436">
<rect width="13" height="21" fill="white" transform="translate(0.575195)"/>
</clipPath>
</defs>
</svg>
