<svg width="22" height="21" viewBox="0 0 22 21" fill="none" xmlns="http://www.w3.org/2000/svg">
<path d="M13.5276 0.817505H11.075V2.35034H12.7611V5.23718C12.7611 7.77277 10.6982 9.83573 8.16259 9.83573C5.62701 9.83573 3.56409 7.77281 3.56409 5.23723V2.35034H5.19913V0.817505H2.79767C2.37435 0.817505 2.03125 1.1606 2.03125 1.58392V5.23723C2.03125 8.61818 4.78168 11.3686 8.16263 11.3686C11.5436 11.3686 14.294 8.61818 14.294 5.23723V1.58392C14.294 1.1606 13.9509 0.817505 13.5276 0.817505Z" fill="#1E1E1E"/>
<path d="M16.5167 12.0072V15.635C16.5167 17.748 14.7976 19.4671 12.6845 19.4671C10.5715 19.4671 8.85242 17.748 8.85242 15.635V10.6277H7.31958V15.635C7.31958 18.5931 9.72613 21 12.6845 21C15.6427 21 18.0495 18.5931 18.0495 15.635V12.0072H16.5167Z" fill="#1E1E1E"/>
<path d="M17.2833 7.05103C15.7193 7.05103 14.4473 8.32304 14.4473 9.8868C14.4473 11.4503 15.7193 12.7226 17.283 12.7226C18.8468 12.7226 20.1188 11.4503 20.1191 9.8868C20.119 8.32304 18.8468 7.05103 17.2833 7.05103ZM17.283 11.1897C16.5644 11.1897 15.9799 10.6052 15.9799 9.88685C15.9799 9.16846 16.5644 8.58394 17.283 8.58394C18.0014 8.58394 18.5859 9.16846 18.5859 9.88685C18.5859 10.6052 18.0014 11.1897 17.283 11.1897Z" fill="#1E1E1E"/>
<path d="M5.17364 0C4.75032 0 4.40723 0.343096 4.40723 0.766418V2.40146C4.40723 2.82479 4.75032 3.16788 5.17364 3.16788C5.59697 3.16788 5.94006 2.82479 5.94006 2.40146V0.766418C5.94006 0.343096 5.59697 0 5.17364 0Z" fill="#1E1E1E"/>
<path d="M11.1006 0C10.6773 0 10.3342 0.343096 10.3342 0.766418V2.40146C10.3342 2.82479 10.6773 3.16788 11.1006 3.16788C11.524 3.16788 11.8671 2.82479 11.8671 2.40146V0.766418C11.8671 0.343096 11.524 0 11.1006 0Z" fill="#1E1E1E"/>
</svg>
