<svg width="21" height="22" viewBox="0 0 21 22" fill="none" xmlns="http://www.w3.org/2000/svg">
<path d="M10.4327 10.3177C11.7562 10.3177 12.9022 9.84026 13.8387 8.89832C14.775 7.95654 15.2499 6.80421 15.2499 5.47295C15.2499 4.14215 14.7752 2.98967 13.8386 2.04758C12.902 1.10595 11.7561 0.62854 10.4327 0.62854C9.10898 0.62854 7.9632 1.10595 7.02676 2.04773C6.09033 2.98952 5.61548 4.142 5.61548 5.47295C5.61548 6.80421 6.09033 7.95669 7.02676 8.89848C7.9635 9.8401 9.10944 10.3177 10.4327 10.3177ZM7.85562 2.88117C8.57416 2.15853 9.41705 1.80726 10.4327 1.80726C11.4482 1.80726 12.2912 2.15853 13.0099 2.88117C13.7284 3.60397 14.0779 4.45183 14.0779 5.47295C14.0779 6.49438 13.7284 7.34209 13.0099 8.06488C12.2912 8.78768 11.4482 9.13895 10.4327 9.13895C9.41736 9.13895 8.57446 8.78752 7.85562 8.06488C7.13693 7.34224 6.78751 6.49438 6.78751 5.47295C6.78751 4.45183 7.13693 3.60397 7.85562 2.88117Z" fill="#EFF2F1" stroke="#EFF2F1"/>
<path d="M18.8615 16.724C18.8345 16.3321 18.7798 15.9046 18.6994 15.4531C18.6183 14.9982 18.5137 14.5682 18.3886 14.1752C18.2592 13.769 18.0836 13.3679 17.8661 12.9835C17.6408 12.5845 17.3759 12.237 17.0786 11.9511C16.7678 11.652 16.3873 11.4116 15.9472 11.2362C15.5087 11.0617 15.0227 10.9733 14.5028 10.9733C14.2986 10.9733 14.1012 11.0575 13.7199 11.3072C13.4852 11.4611 13.2107 11.6392 12.9043 11.836C12.6423 12.0039 12.2874 12.1612 11.849 12.3036C11.4213 12.4428 10.987 12.5134 10.5583 12.5134C10.1298 12.5134 9.69553 12.4428 9.26752 12.3036C8.82959 12.1614 8.47452 12.0041 8.21298 11.8362C7.90948 11.6412 7.63483 11.4631 7.39664 11.3071C7.01562 11.0574 6.81818 10.9731 6.61401 10.9731C6.09399 10.9731 5.60815 11.0617 5.16977 11.2363C4.73001 11.4114 4.3493 11.6519 4.03818 11.9513C3.74094 12.2373 3.47604 12.5846 3.25082 12.9835C3.03369 13.3679 2.85791 13.7689 2.72852 14.1754C2.60355 14.5684 2.49902 14.9982 2.41785 15.4531C2.33728 15.904 2.28281 16.3316 2.2558 16.7245C2.22925 17.1086 2.21582 17.5084 2.21582 17.9123C2.21582 18.9622 2.5477 19.8123 3.20215 20.4391C3.84851 21.0577 4.70361 21.3714 5.7438 21.3714H15.3739C16.4138 21.3714 17.2689 21.0577 17.9154 20.4391C18.57 19.8127 18.9019 18.9624 18.9019 17.9121C18.9018 17.5068 18.8882 17.1071 18.8615 16.724ZM17.1073 19.5851C16.6802 19.994 16.1132 20.1927 15.3738 20.1927H5.7438C5.00421 20.1927 4.43719 19.994 4.01025 19.5853C3.5914 19.1843 3.38785 18.6369 3.38785 17.9123C3.38785 17.5354 3.40021 17.1632 3.42493 16.806C3.44904 16.4555 3.49832 16.0705 3.57141 15.6613C3.64359 15.2573 3.73544 14.8781 3.8447 14.5348C3.94952 14.2056 4.0925 13.8797 4.26981 13.5657C4.43903 13.2664 4.63373 13.0097 4.84857 12.8028C5.04953 12.6093 5.30283 12.451 5.60129 12.3322C5.87732 12.2223 6.18753 12.1621 6.52429 12.1531C6.56534 12.175 6.63843 12.2169 6.75684 12.2946C6.99777 12.4525 7.27548 12.6327 7.58249 12.8299C7.92856 13.0518 8.37442 13.2522 8.9071 13.4251C9.45169 13.6022 10.0071 13.6921 10.5584 13.6921C11.1097 13.6921 11.6653 13.6022 12.2096 13.4253C12.7427 13.252 13.1884 13.0518 13.5349 12.8295C13.8491 12.6276 14.119 12.4526 14.36 12.2946C14.4784 12.2171 14.5515 12.175 14.5925 12.1531C14.9294 12.1621 15.2397 12.2223 15.5158 12.3322C15.8141 12.451 16.0674 12.6095 16.2684 12.8028C16.4832 13.0096 16.6779 13.2663 16.8472 13.5658C17.0246 13.8797 17.1678 14.2058 17.2724 14.5346C17.3818 14.8784 17.4738 15.2574 17.5459 15.6612C17.6188 16.0711 17.6682 16.4563 17.6924 16.8061V16.8064C17.7172 17.1623 17.7297 17.5343 17.7299 17.9123C17.7297 18.6371 17.5262 19.1843 17.1073 19.5851Z" fill="#EFF2F1" stroke="#EFF2F1"/>
</svg>
