<svg width="41" height="40" viewBox="0 0 41 40" fill="none" xmlns="http://www.w3.org/2000/svg">
<circle cx="20.5" cy="20" r="20" fill="#66CA98"/>
<path d="M20.4999 21.4299C20.9096 21.4299 21.3153 21.3492 21.6939 21.1924C22.0724 21.0357 22.4163 20.8058 22.7061 20.5161C22.9958 20.2264 23.2256 19.8824 23.3824 19.5039C23.5392 19.1254 23.6199 18.7197 23.6199 18.3099C23.6199 17.9002 23.5392 17.4945 23.3824 17.116C23.2256 16.7374 22.9958 16.3935 22.7061 16.1038C22.4163 15.814 22.0724 15.5842 21.6939 15.4274C21.3153 15.2706 20.9096 15.1899 20.4999 15.1899C19.6724 15.1899 18.8788 15.5187 18.2937 16.1038C17.7086 16.6889 17.3799 17.4825 17.3799 18.3099C17.3799 19.1374 17.7086 19.931 18.2937 20.5161C18.8788 21.1012 19.6724 21.4299 20.4999 21.4299Z" stroke="white" stroke-width="1.5"/>
<path d="M12.12 16.49C14.09 7.83 26.92 7.84 28.88 16.5C30.03 21.58 26.87 25.88 24.1 28.54C23.132 29.4735 21.8397 29.9952 20.495 29.9952C19.1502 29.9952 17.8579 29.4735 16.89 28.54C14.13 25.88 10.97 21.57 12.12 16.49Z" stroke="white" stroke-width="1.5"/>
</svg>
