<svg width="13" height="21" viewBox="0 0 13 21" fill="none" xmlns="http://www.w3.org/2000/svg">
<g clip-path="url(#clip0_64_439)">
<path d="M8.9052 3.2806C8.9052 1.98984 7.89953 1.00001 6.7402 1.00001C5.5807 1.00001 4.5752 1.9898 4.5752 3.2806C4.5752 4.57161 5.5809 5.5614 6.7402 5.5614C7.89949 5.5614 8.9052 4.57161 8.9052 3.2806Z" stroke="white" stroke-width="2"/>
<path d="M9.54712 17.1999L9.54713 17.1998L11.5618 9.22994C11.5618 9.22985 11.5618 9.22976 11.5618 9.22968C11.5931 9.10549 11.567 8.98653 11.5001 8.89568C11.435 8.8072 11.3557 8.77474 11.2797 8.77474H1.92093C1.84491 8.77474 1.76564 8.8072 1.70048 8.89568C1.63353 8.9866 1.60757 9.1055 1.63894 9.22949L1.63899 9.2297L3.65349 17.1999C3.65349 17.1999 3.65349 17.1999 3.65349 17.1999C4.01749 18.6399 5.24921 19.5988 6.60041 19.5988C7.95155 19.5988 9.18312 18.64 9.54712 17.1999Z" stroke="white" stroke-width="2"/>
</g>
<defs>
<clipPath id="clip0_64_439">
<rect width="12" height="21" fill="white" transform="matrix(1 0 0 -1 0.575195 21)"/>
</clipPath>
</defs>
</svg>
