<svg width="20" height="20" viewBox="0 0 20 20" fill="none" xmlns="http://www.w3.org/2000/svg">
<path fill-rule="evenodd" clip-rule="evenodd" d="M8.72609 1.91687e-08C7.37068 0.000115492 6.03495 0.324364 4.83034 0.945694C3.62573 1.56702 2.58718 2.46742 1.80132 3.57175C1.01546 4.67609 0.505094 5.95235 0.312792 7.29404C0.12049 8.63574 0.251833 10.004 0.695862 11.2846C1.13989 12.5652 1.88373 13.7211 2.86532 14.6557C3.84691 15.5904 5.03779 16.2768 6.3386 16.6576C7.63941 17.0384 9.01243 17.1026 10.3431 16.8449C11.6738 16.5872 12.9235 16.015 13.9881 15.176L17.6401 18.828C17.8287 19.0102 18.0813 19.111 18.3435 19.1087C18.6057 19.1064 18.8565 19.0012 19.0419 18.8158C19.2273 18.6304 19.3325 18.3796 19.3348 18.1174C19.337 17.8552 19.2362 17.6026 19.0541 17.414L15.4021 13.762C16.3901 12.5086 17.0053 11.0024 17.1772 9.41573C17.3491 7.82905 17.0709 6.22602 16.3743 4.79009C15.6777 3.35417 14.591 2.14336 13.2384 1.29623C11.8858 0.449107 10.3221 -0.000107143 8.72609 1.91687e-08ZM2.22608 8.5C2.22608 6.77609 2.9109 5.12279 4.12989 3.90381C5.34888 2.68482 7.00218 2 8.72609 2C10.45 2 12.1033 2.68482 13.3223 3.90381C14.5413 5.12279 15.2261 6.77609 15.2261 8.5C15.2261 10.2239 14.5413 11.8772 13.3223 13.0962C12.1033 14.3152 10.45 15 8.72609 15C7.00218 15 5.34888 14.3152 4.12989 13.0962C2.9109 11.8772 2.22608 10.2239 2.22608 8.5Z" fill="#A7A6A5"/>
</svg>
