<svg width="21" height="20" viewBox="0 0 21 20" fill="none" xmlns="http://www.w3.org/2000/svg">
<path fill-rule="evenodd" clip-rule="evenodd" d="M9.3877 1.91687e-08C7.93064 0.000115492 6.49473 0.324364 5.19978 0.945694C3.90482 1.56702 2.78837 2.46742 1.94358 3.57175C1.09878 4.67609 0.550135 5.95235 0.343411 7.29404C0.136686 8.63574 0.27788 10.004 0.755211 11.2846C1.23254 12.5652 2.03217 13.7211 3.08738 14.6557C4.14259 15.5904 5.42278 16.2768 6.82115 16.6576C8.21952 17.0384 9.69552 17.1026 11.126 16.8449C12.5565 16.5872 13.9 16.015 15.0444 15.176L18.9703 18.828C19.173 19.0102 19.4445 19.111 19.7264 19.1087C20.0083 19.1064 20.2779 19.0012 20.4772 18.8158C20.6765 18.6304 20.7896 18.3796 20.792 18.1174C20.7945 17.8552 20.6861 17.6026 20.4903 17.414L16.5644 13.762C17.6265 12.5086 18.2878 11.0024 18.4726 9.41573C18.6575 7.82905 18.3584 6.22602 17.6095 4.79009C16.8607 3.35417 15.6925 2.14336 14.2384 1.29623C12.7844 0.449107 11.1034 -0.000107143 9.3877 1.91687e-08V1.91687e-08ZM2.4002 8.5C2.4002 6.77609 3.13638 5.12279 4.44679 3.90381C5.7572 2.68482 7.5345 2 9.3877 2C11.2409 2 13.0182 2.68482 14.3286 3.90381C15.639 5.12279 16.3752 6.77609 16.3752 8.5C16.3752 10.2239 15.639 11.8772 14.3286 13.0962C13.0182 14.3152 11.2409 15 9.3877 15C7.5345 15 5.7572 14.3152 4.44679 13.0962C3.13638 11.8772 2.4002 10.2239 2.4002 8.5V8.5Z" fill="white"/>
</svg>
