<svg width="22" height="22" viewBox="0 0 22 22" fill="none" xmlns="http://www.w3.org/2000/svg">
<path d="M21.2461 0.753732C21.128 0.636195 20.9788 0.554818 20.8161 0.519167C20.6533 0.483516 20.4838 0.495074 20.3274 0.552482L1.07738 7.55248C0.911363 7.61545 0.768434 7.72744 0.667573 7.87357C0.566713 8.01969 0.512695 8.19305 0.512695 8.37061C0.512695 8.54816 0.566713 8.72152 0.667573 8.86765C0.768434 9.01377 0.911363 9.12576 1.07738 9.18873L7.9806 11.9452C8.35243 12.0937 8.77698 12.006 9.05965 11.7225L13.5247 7.24331C13.865 6.90198 14.4177 6.90154 14.7585 7.24234C15.0989 7.58276 15.0989 8.1347 14.7585 8.47512L10.2676 12.966C9.98463 13.249 9.8976 13.6734 10.0464 14.0449L12.8111 20.9487C12.876 21.1115 12.9882 21.2511 13.1333 21.3494C13.2784 21.4477 13.4496 21.5002 13.6249 21.5C13.8017 21.4964 13.9733 21.4392 14.117 21.3361C14.2607 21.233 14.3698 21.0888 14.4299 20.9225L21.4299 1.67248C21.4895 1.51767 21.5039 1.34911 21.4713 1.18644C21.4388 1.02377 21.3607 0.873703 21.2461 0.753732Z" fill="white"/>
</svg>
