<svg width="43" height="43" viewBox="0 0 43 43" fill="none" xmlns="http://www.w3.org/2000/svg">
<rect width="43" height="43" rx="6" fill="#FFF7DC"/>
<g clip-path="url(#clip0_47_1067)">
<path d="M32.9995 15.9255C32.9758 14.3467 32.3402 12.862 31.2098 11.7449C30.0795 10.6279 28.5874 10.0097 27.0054 10.004C25.1855 10.004 23.7995 10.9545 22.5902 11.9548C22.5889 11.9548 22.5875 11.9548 22.5861 11.9548C22.0276 11.9548 21.437 11.6181 20.7558 11.2298C19.7977 10.6837 18.6055 10.004 16.9947 10.004C13.7384 10.004 11.0495 12.6604 11.0005 15.9255C10.9794 17.3289 11.5975 20.4253 12.5036 23.4554C13.1491 25.6142 14.4729 29.4803 16.0855 31.1173C16.6602 31.7008 17.2616 31.9967 17.8726 31.9967C18.3234 31.9967 18.7313 31.8093 19.0522 31.4549C19.2706 31.2136 19.4505 30.8928 19.6021 30.4742C19.8384 29.8216 19.9861 28.9919 20.1425 28.1134C20.5437 25.8593 20.9355 24.1341 22.0021 24.1278C23.0688 24.1341 23.4606 25.8593 23.8618 28.1134C24.0182 28.9918 24.1658 29.8216 24.4021 30.4742C24.5537 30.8929 24.7336 31.2136 24.952 31.4549C25.2693 31.8052 25.6714 31.9923 26.1161 31.9966C26.1207 31.9966 26.1252 31.9966 26.1298 31.9966C26.1304 31.9966 26.131 31.9966 26.1317 31.9966C26.1346 31.9966 26.1376 31.9966 26.1404 31.9966C26.747 31.9924 27.3439 31.6966 27.9147 31.1172C29.5272 29.4803 30.8509 25.6141 31.4964 23.4553C32.4025 20.4252 33.0206 17.3288 32.9995 15.9255ZM29.8503 22.963C28.8295 26.3765 27.6779 28.9091 26.6906 29.9114C26.4771 30.1281 26.3069 30.2331 26.1975 30.2663C26.1436 30.1907 26.0387 30.003 25.9182 29.5759C25.7804 29.0878 25.6701 28.4682 25.5533 27.8121C25.3559 26.7029 25.132 25.4456 24.6963 24.4514C23.9643 22.7819 22.8439 22.4172 22.0227 22.4096C22.0179 22.4095 22.013 22.4095 22.008 22.4095H21.9961C21.9912 22.4095 21.9863 22.4095 21.9814 22.4096C21.1603 22.4172 20.0399 22.7819 19.3079 24.4515C18.8721 25.4456 18.6483 26.7028 18.4509 27.8122C18.3341 28.4682 18.2238 29.0879 18.0861 29.576C17.965 30.005 17.8597 30.1924 17.806 30.2674C17.6968 30.2353 17.5252 30.1304 17.3095 29.9114C16.3222 28.9092 15.1705 26.3766 14.1498 22.9631C13.1995 19.785 12.7031 16.9785 12.7185 15.9513C12.7536 13.6193 14.6719 11.7222 16.9948 11.7222C18.1502 11.7222 19.0423 12.2307 19.9049 12.7224C20.2585 12.9239 20.6172 13.1284 20.9918 13.2958C20.1452 13.9613 19.3257 14.4415 18.3683 14.4415V16.1597C20.3167 16.1597 21.7176 14.959 23.0724 13.7978C24.3178 12.7304 25.4941 11.7221 27.0023 11.7221C29.327 11.7304 31.2467 13.6275 31.2816 15.9512C31.2969 16.9784 30.8005 19.785 29.8503 22.963Z" fill="#F7C25D"/>
</g>
<defs>
<clipPath id="clip0_47_1067">
<rect width="22" height="22" fill="white" transform="translate(11 10)"/>
</clipPath>
</defs>
</svg>
