<svg width="41" height="40" viewBox="0 0 41 40" fill="none" xmlns="http://www.w3.org/2000/svg">
<circle cx="20.5" cy="20" r="20" fill="#66CA98"/>
<path d="M17.4702 30H23.4702C28.4702 30 30.4702 28 30.4702 23V17C30.4702 12 28.4702 10 23.4702 10H17.4702C12.4702 10 10.4702 12 10.4702 17V23C10.4702 28 12.4702 30 17.4702 30Z" stroke="white" stroke-width="1.5" stroke-linecap="round" stroke-linejoin="round"/>
<path d="M10.4702 20.7L16.4702 20.68C17.2202 20.68 18.0602 21.25 18.3402 21.95L19.4802 24.83C19.7402 25.48 20.1502 25.48 20.4102 24.83L22.7002 19.02C22.9202 18.46 23.3302 18.44 23.6102 18.97L24.6502 20.94C24.9602 21.53 25.7602 22.01 26.4202 22.01H30.4802" stroke="white" stroke-width="1.5" stroke-linecap="round" stroke-linejoin="round"/>
</svg>
